<?xml version="1.0" encoding="UTF-8" standalone="no"?>
<!DOCTYPE svg PUBLIC "-//W3C//DTD SVG 1.1//EN"
 "http://www.w3.org/Graphics/SVG/1.1/DTD/svg11.dtd">
<!-- Generated by graphviz version 2.38.0 (20140413.2041)
 -->
<!-- Title: D Pages: 1 -->
<svg width="288pt" height="191pt"
 viewBox="0.00 0.00 288.00 191.12" xmlns="http://www.w3.org/2000/svg" xmlns:xlink="http://www.w3.org/1999/xlink">
<g id="graph0" class="graph" transform="scale(0.830941 0.830941) rotate(0) translate(4 226)">
<title>D</title>
<polygon fill="white" stroke="none" points="-4,4 -4,-226 342.595,-226 342.595,4 -4,4"/>
<text text-anchor="middle" x="169.298" y="-206.8" font-family="Times,serif" font-size="14.00">Max Flow Network for Bi&#45;Partite Algorithm</text>
<g id="clust1" class="cluster"><title>cluster_1</title>
<polygon fill="lightblue" stroke="lightblue" points="82.5952,-8 82.5952,-191 159.595,-191 159.595,-8 82.5952,-8"/>
<text text-anchor="middle" x="121.095" y="-175.8" font-family="Times,serif" font-size="14.00">subgraph 1</text>
</g>
<g id="clust2" class="cluster"><title>cluster_2</title>
<polygon fill="pink" stroke="pink" points="179.595,-8 179.595,-191 256.595,-191 256.595,-8 179.595,-8"/>
<text text-anchor="middle" x="218.095" y="-175.8" font-family="Times,serif" font-size="14.00">subgraph 2</text>
</g>
<!-- S -->
<g id="node1" class="node"><title>S</title>
<ellipse fill="#caff70" stroke="#caff70" cx="27.2976" cy="-88" rx="27.0966" ry="18"/>
<text text-anchor="middle" x="27.2976" y="-84.3" font-family="Times,serif" font-size="14.00">Start</text>
</g>
<!-- 1 -->
<g id="node2" class="node"><title>1</title>
<ellipse fill="none" stroke="black" cx="120.595" cy="-142" rx="27" ry="18"/>
<text text-anchor="middle" x="120.595" y="-138.3" font-family="Times,serif" font-size="14.00">...</text>
</g>
<!-- S&#45;&#45;1 -->
<g id="edge1" class="edge"><title>S&#45;&#45;1</title>
<path fill="none" stroke="black" d="M48.1078,-99.7172C63.4215,-108.775 84.5197,-121.254 99.8236,-130.306"/>
</g>
<!-- 2 -->
<g id="node3" class="node"><title>2</title>
<ellipse fill="none" stroke="black" cx="120.595" cy="-88" rx="27" ry="18"/>
<text text-anchor="middle" x="120.595" y="-84.3" font-family="Times,serif" font-size="14.00">A</text>
</g>
<!-- S&#45;&#45;2 -->
<g id="edge2" class="edge"><title>S&#45;&#45;2</title>
<path fill="none" stroke="black" d="M54.7046,-88C66.9225,-88 81.3914,-88 93.5627,-88"/>
</g>
<!-- 3 -->
<g id="node4" class="node"><title>3</title>
<ellipse fill="none" stroke="black" cx="120.595" cy="-34" rx="27" ry="18"/>
<text text-anchor="middle" x="120.595" y="-30.3" font-family="Times,serif" font-size="14.00">...</text>
</g>
<!-- S&#45;&#45;3 -->
<g id="edge3" class="edge"><title>S&#45;&#45;3</title>
<path fill="none" stroke="black" d="M48.1078,-76.2828C63.4215,-67.2252 84.5197,-54.7462 99.8236,-45.6943"/>
</g>
<!-- 4 -->
<g id="node5" class="node"><title>4</title>
<ellipse fill="none" stroke="black" cx="217.595" cy="-142" rx="27" ry="18"/>
<text text-anchor="middle" x="217.595" y="-138.3" font-family="Times,serif" font-size="14.00">...</text>
</g>
<!-- 1&#45;&#45;4 -->
<g id="edge4" class="edge"><title>1&#45;&#45;4</title>
<path fill="none" stroke="black" d="M147.806,-142C161.097,-142 177.191,-142 190.47,-142"/>
</g>
<!-- 5 -->
<g id="node6" class="node"><title>5</title>
<ellipse fill="none" stroke="black" cx="217.595" cy="-88" rx="27" ry="18"/>
<text text-anchor="middle" x="217.595" y="-84.3" font-family="Times,serif" font-size="14.00">B</text>
</g>
<!-- 2&#45;&#45;5 -->
<g id="edge5" class="edge"><title>2&#45;&#45;5</title>
<path fill="none" stroke="red" stroke-dasharray="5,2" d="M147.806,-88C161.097,-88 177.191,-88 190.47,-88"/>
</g>
<!-- 6 -->
<g id="node7" class="node"><title>6</title>
<ellipse fill="none" stroke="black" cx="217.595" cy="-34" rx="27" ry="18"/>
<text text-anchor="middle" x="217.595" y="-30.3" font-family="Times,serif" font-size="14.00">...</text>
</g>
<!-- 3&#45;&#45;6 -->
<g id="edge6" class="edge"><title>3&#45;&#45;6</title>
<path fill="none" stroke="black" d="M147.806,-34C161.097,-34 177.191,-34 190.47,-34"/>
</g>
<!-- T -->
<g id="node8" class="node"><title>T</title>
<ellipse fill="#ff6a6a" stroke="#ff6a6a" cx="311.595" cy="-88" rx="27" ry="18"/>
<text text-anchor="middle" x="311.595" y="-84.3" font-family="Times,serif" font-size="14.00">Sink</text>
</g>
<!-- 4&#45;&#45;T -->
<g id="edge7" class="edge"><title>4&#45;&#45;T</title>
<path fill="none" stroke="black" d="M238.558,-130.283C253.989,-121.225 275.25,-108.746 290.671,-99.6943"/>
</g>
<!-- 5&#45;&#45;T -->
<g id="edge8" class="edge"><title>5&#45;&#45;T</title>
<path fill="none" stroke="black" d="M244.713,-88C257.143,-88 271.973,-88 284.412,-88"/>
</g>
<!-- 6&#45;&#45;T -->
<g id="edge9" class="edge"><title>6&#45;&#45;T</title>
<path fill="none" stroke="black" d="M238.558,-45.7172C253.989,-54.7748 275.25,-67.2538 290.671,-76.3057"/>
</g>
</g>
</svg>
